<svg xmlns="http://www.w3.org/2000/svg" xmlns:xlink="http://www.w3.org/1999/xlink" width="818.6" height="686.9" viewBox="0 0 818.55304 686.94758" role="img" artist="Katerina Limpitsouni" source="https://undraw.co/"><rect x="104.5" y="93.9" width="578.6" height="591.6" rx="17.4" ry="17.4" fill="#ffffff"/><path d="M 657.8 686.9 H 129.8 c -14.7 0 -26.7 -12 -26.7 -26.7 V 119.1 c 0 -14.7 12 -26.7 26.7 -26.7 h 528.1 c 14.7 0 26.7 12 26.7 26.7 v 541.1 c 0 14.7 -12 26.7 -26.7 26.7 Z M 129.8 95.3 c -13.1 0 -23.8 10.7 -23.8 23.8 v 541.1 c 0 13.1 10.7 23.8 23.8 23.8 h 528.1 c 13.1 0 23.8 -10.7 23.8 -23.8 V 119.1 c 0 -13.1 -10.7 -23.8 -23.8 -23.8 H 129.8 Z" fill="#090814"/><path d="M 606 369 H 191.1 c -10.9 0 -19.7 -8.9 -19.7 -19.7 v -65 c 0 -10.9 8.9 -19.7 19.7 -19.7 h 414.9 c 10.9 0 19.7 8.9 19.7 19.7 v 65 c 0 10.9 -8.9 19.7 -19.7 19.7 Z M 191.1 267.4 c -9.3 0 -16.8 7.6 -16.8 16.8 v 65 c 0 9.3 7.6 16.8 16.8 16.8 h 414.9 c 9.3 0 16.8 -7.6 16.8 -16.8 v -65 c 0 -9.3 -7.6 -16.8 -16.8 -16.8 H 191.1 Z" fill="#090814"/><path d="M 606 495.3 H 191.1 c -10.9 0 -19.7 -8.9 -19.7 -19.7 v -65 c 0 -10.9 8.9 -19.7 19.7 -19.7 h 414.9 c 10.9 0 19.7 8.9 19.7 19.7 v 65 c 0 10.9 -8.9 19.7 -19.7 19.7 Z M 191.1 393.7 c -9.3 0 -16.8 7.6 -16.8 16.8 v 65 c 0 9.3 7.6 16.8 16.8 16.8 h 414.9 c 9.3 0 16.8 -7.6 16.8 -16.8 v -65 c 0 -9.3 -7.6 -16.8 -16.8 -16.8 H 191.1 Z" fill="#090814"/><circle cx="295.4" cy="443.8" r="10.2" fill="#6c63ff"/><circle cx="329.6" cy="444.5" r="10.2" fill="#6c63ff"/><circle cx="364.4" cy="443" r="10.2" fill="#6c63ff"/><circle cx="399.2" cy="443" r="10.2" fill="#6c63ff"/><circle cx="434.1" cy="443" r="10.2" fill="#6c63ff"/><circle cx="468.9" cy="443" r="10.2" fill="#6c63ff"/><path d="M 490 630.3 h -197.5 c -26 0 -47.2 -21.2 -47.2 -47.2 s 21.2 -47.2 47.2 -47.2 h 197.5 c 26 0 47.2 21.2 47.2 47.2 s -21.2 47.2 -47.2 47.2 Z" fill="#6c63ff"/>

</svg>